<svg width="200" height="25" fill="none" xmlns="http://www.w3.org/2000/svg"><path fill-rule="evenodd" clip-rule="evenodd" d="M119.696 14.367a4.034 4.034 0 014.034 4.034v5.911h-4.316v-9.664h.282v-.281zm.281.574v8.808h3.191v-5.348a3.472 3.472 0 00-3.191-3.46zM106.279 1.23h9.664a4.034 4.034 0 014.034 4.035h-.281v.282h-13.417V1.23zm13.124 3.754a3.472 3.472 0 00-3.46-3.19h-9.101v3.19h12.561z" fill="#0D38C4" stroke="#0D38C4" stroke-width=".6"/><path fill-rule="evenodd" clip-rule="evenodd" d="M106.56 4.984a4.034 4.034 0 00-4.034 4.034v15.294h4.316V5.265h-.282v-.281zm-.281.574v18.19h-3.19V9.019a3.472 3.472 0 013.19-3.46zm13.699 9.372h-9.946v-4.317h9.946v4.316zm-.563-.563v-3.19h-8.82v3.19h8.82z" fill="#0D38C4" stroke="#0D38C4" stroke-width=".6"/><path fill-rule="evenodd" clip-rule="evenodd" d="M120.634 4.984a3.096 3.096 0 010 6.192h-1.22V4.984h1.22zm2.534 3.096c0-1.4-1.135-2.533-2.534-2.533h-.657v5.066h.657a2.534 2.534 0 002.534-2.533zm58.922-2.815a4.035 4.035 0 014.035-4.034h13.417v4.316h-17.17v-.282h-.282zm.575-.281h16.314v-3.19h-12.854a3.471 3.471 0 00-3.46 3.19zm11.248 9.946h-11.822v-4.317h11.822v4.316zm-.563-.563v-3.19h-10.697v3.19h10.697zm6.192 9.945h-13.417a4.035 4.035 0 01-4.035-4.035h.282v-.281h17.17v4.316zm-16.877-3.753a3.471 3.471 0 003.46 3.19h12.854v-3.19h-16.314z" fill="#0D38C4" stroke="#0D38C4" stroke-width=".6"/><path fill-rule="evenodd" clip-rule="evenodd" d="M181.434 11.176a3.097 3.097 0 110-6.192h1.219v6.192h-1.219zM178.9 8.08c0 1.4 1.135 2.533 2.534 2.533h.656V5.547h-.656A2.534 2.534 0 00178.9 8.08zm2.534 12.479a3.097 3.097 0 110-6.193h1.219v6.193h-1.219zm-2.534-3.096a2.534 2.534 0 002.534 2.533h.656v-5.067h-.656a2.534 2.534 0 00-2.534 2.534zm-24.864-6.287a3.096 3.096 0 010-6.192h1.22v6.192h-1.22zm-2.533-3.096c0 1.4 1.134 2.533 2.533 2.533h.657V5.547h-.657a2.533 2.533 0 00-2.533 2.533zm21.299 6.287a3.096 3.096 0 010 6.192h-1.22v-6.193h1.22zm2.533 3.096c0-1.4-1.134-2.534-2.533-2.534h-.657v5.067h.657a2.533 2.533 0 002.533-2.533z" fill="#0D38C4" stroke="#0D38C4" stroke-width=".6"/><path fill-rule="evenodd" clip-rule="evenodd" d="M154.693 5.265a4.034 4.034 0 014.034-4.034h13.418v4.316h-17.171v-.282h-.281zm.574-.281h16.315v-3.19h-12.855a3.472 3.472 0 00-3.46 3.19zm16.878 15.293a4.035 4.035 0 01-4.035 4.035h-13.417v-4.316h17.17v.282h.282zm-.575.282h-16.314v3.19h12.854a3.471 3.471 0 003.46-3.19zm-16.877-9.664a4.034 4.034 0 004.034 4.034h13.136v-.281h.282a4.035 4.035 0 00-4.035-4.035h-13.136v.282h-.281zm.574.281h12.843a3.471 3.471 0 013.46 3.19h-12.843a3.472 3.472 0 01-3.46-3.19zm-10.707 9.101a4.034 4.034 0 01-4.034 4.035h-5.63a4.035 4.035 0 01-4.035-4.035h.282v-.281h13.136v.282h.281zm-.574.282h-12.55a3.471 3.471 0 003.46 3.19h5.63a3.472 3.472 0 003.46-3.19z" fill="#0D38C4" stroke="#0D38C4" stroke-width=".6"/><path fill-rule="evenodd" clip-rule="evenodd" d="M131.143 20.559a4.035 4.035 0 01-4.035-4.035V1.231h4.316v19.046h-.281v.282zm-.282-.574V1.794h-3.19v14.73a3.472 3.472 0 003.19 3.46zm13.417.574a4.034 4.034 0 004.035-4.035V1.231h-4.316v19.046h.281v.282zm.282-.574V1.794h3.19v14.73a3.471 3.471 0 01-3.19 3.46zM82.072 5.265a4.035 4.035 0 014.034-4.034h13.417v4.316h-17.17v-.282h-.281zm.574-.281H98.96v-3.19H86.106a3.472 3.472 0 00-3.46 3.19zm11.248 9.946H82.072v-4.317h11.822v4.316zm-.563-.563v-3.19H82.635v3.19H93.33zm6.192 9.945H86.106a4.034 4.034 0 01-4.034-4.035h.281v-.281h17.17v4.316zm-16.877-3.753a3.472 3.472 0 003.46 3.19h12.855v-3.19H82.645z" fill="#0D38C4" stroke="#0D38C4" stroke-width=".6"/><path fill-rule="evenodd" clip-rule="evenodd" d="M81.415 11.176a3.096 3.096 0 010-6.192h1.22v6.192h-1.22zM78.882 8.08c0 1.4 1.134 2.533 2.533 2.533h.657V5.547h-.657a2.533 2.533 0 00-2.533 2.533zm2.533 12.479a3.096 3.096 0 110-6.193h1.22v6.193h-1.22zm-2.533-3.096a2.533 2.533 0 002.533 2.533h.657v-5.067h-.657a2.533 2.533 0 00-2.533 2.534zM56.926 1.23h11.54a4.035 4.035 0 014.035 4.035h-.281v.282H56.926V1.23zm15.001 3.754a3.472 3.472 0 00-3.46-3.19H57.489v3.19h14.438zm.574 5.911a4.035 4.035 0 01-4.034 4.034h-11.54v-4.316H72.22v.282h.281zm-.574.281H57.49v3.19h10.978a3.472 3.472 0 003.46-3.19z" fill="#0D38C4" stroke="#0D38C4" stroke-width=".6"/><path fill-rule="evenodd" clip-rule="evenodd" d="M56.27 11.176a3.096 3.096 0 010-6.192h1.22v6.192h-1.22zM53.736 8.08c0 1.4 1.135 2.533 2.534 2.533h.656V5.547h-.656a2.533 2.533 0 00-2.534 2.533zm19.422-3.096a3.096 3.096 0 110 6.192h-1.22V4.984h1.22zm2.533 3.096c0-1.4-1.134-2.533-2.533-2.533h-.657v5.066h.657c1.4 0 2.533-1.134 2.533-2.533zM53.173 24.312v-5.911a4.035 4.035 0 014.035-4.034v.28h.281v9.665h-4.316zm3.753-9.371a3.472 3.472 0 00-3.19 3.46v5.348h3.19v-8.808zM46.23 20.277a4.034 4.034 0 01-4.034 4.035h-5.63a4.034 4.034 0 01-4.034-4.035h.281v-.281H45.95v.282h.282zm-.574.282h-12.55a3.472 3.472 0 003.46 3.19h5.63a3.472 3.472 0 003.46-3.19z" fill="#0D38C4" stroke="#0D38C4" stroke-width=".6"/><path fill-rule="evenodd" clip-rule="evenodd" d="M32.813 20.559a4.034 4.034 0 01-4.034-4.035V1.231h4.316v19.046h-.282v.282zm-.281-.574V1.794h-3.19v14.73a3.472 3.472 0 003.19 3.46zm13.417.574a4.034 4.034 0 004.034-4.035V1.231h-4.316v19.046h.282v.282zm.281-.574V1.794h3.19v14.73a3.472 3.472 0 01-3.19 3.46zM4.29 11.176a3.096 3.096 0 010-6.192h1.22v6.192H4.29zM1.757 8.08c0 1.4 1.134 2.533 2.533 2.533h.657V5.547H4.29A2.533 2.533 0 001.757 8.08zm21.298 6.287a3.096 3.096 0 110 6.192h-1.22v-6.193h1.22zm2.533 3.096c0-1.4-1.134-2.534-2.533-2.534h-.657v5.067h.657c1.4 0 2.533-1.134 2.533-2.533z" fill="#0D38C4" stroke="#0D38C4" stroke-width=".6"/><path fill-rule="evenodd" clip-rule="evenodd" d="M4.947 5.265A4.035 4.035 0 018.98 1.231h13.417v4.316H5.228v-.282h-.281zm.574-.281h16.315v-3.19H8.98a3.472 3.472 0 00-3.46 3.19zm16.877 15.293a4.034 4.034 0 01-4.034 4.035H4.947v-4.316h17.17v.282h.281zm-.574.282H5.51v3.19h12.854a3.472 3.472 0 003.46-3.19zM4.947 10.895a4.035 4.035 0 004.034 4.034h13.136v-.281h.281a4.035 4.035 0 00-4.034-4.035H5.228v.282h-.281zm.574.281h12.843a3.472 3.472 0 013.46 3.19H8.981a3.472 3.472 0 01-3.46-3.19z" fill="#0D38C4" stroke="#0D38C4" stroke-width=".6"/></svg>