<svg width="200" height="25" viewBox="0 0 200 25" fill="none" xmlns="http://www.w3.org/2000/svg">
<path fill-rule="evenodd" clip-rule="evenodd" d="M119.696 14.3665C121.924 14.3665 123.73 16.1728 123.73 18.401L123.73 24.312L119.414 24.312L119.414 14.6479L119.696 14.6479L119.696 14.3665ZM119.977 14.9407L119.977 23.7491L123.168 23.7491L123.168 18.401C123.168 16.5784 121.763 15.0839 119.977 14.9407Z" fill="#0D38C4" stroke="#0D38C4" stroke-width="0.6"/>
<path fill-rule="evenodd" clip-rule="evenodd" d="M106.279 1.23071L115.943 1.23071C118.171 1.23071 119.977 3.03703 119.977 5.26523H119.696V5.54671L106.279 5.54671V1.23071ZM119.403 4.98375C119.26 3.1981 117.765 1.79367 115.943 1.79367L106.842 1.79367V4.98375L119.403 4.98375Z" fill="#0D38C4" stroke="#0D38C4" stroke-width="0.6"/>
<path fill-rule="evenodd" clip-rule="evenodd" d="M106.56 4.98364C104.332 4.98364 102.526 6.78996 102.526 9.01816L102.526 24.3118L106.842 24.3118L106.842 5.26512L106.56 5.26512L106.56 4.98364ZM106.279 5.55784L106.279 23.7488L103.089 23.7488L103.089 9.01816C103.089 7.19563 104.493 5.70112 106.279 5.55784Z" fill="#0D38C4" stroke="#0D38C4" stroke-width="0.6"/>
<path fill-rule="evenodd" clip-rule="evenodd" d="M119.978 14.9294L110.032 14.9294L110.032 10.6134L119.978 10.6134L119.978 14.9294ZM119.415 14.3665L119.415 11.1764L110.595 11.1764L110.595 14.3665L119.415 14.3665Z" fill="#0D38C4" stroke="#0D38C4" stroke-width="0.6"/>
<path fill-rule="evenodd" clip-rule="evenodd" d="M120.634 4.98364C122.344 4.98364 123.73 6.36989 123.73 8.0799C123.73 9.78992 122.344 11.1762 120.634 11.1762L119.414 11.1762L119.414 4.98364L120.634 4.98364ZM123.168 8.0799C123.168 6.6808 122.033 5.5466 120.634 5.5466L119.977 5.5466L119.977 10.6132L120.634 10.6132C122.033 10.6132 123.168 9.47901 123.168 8.0799Z" fill="#0D38C4" stroke="#0D38C4" stroke-width="0.6"/>
<path fill-rule="evenodd" clip-rule="evenodd" d="M182.09 5.26523C182.09 3.03703 183.897 1.23071 186.125 1.23071H199.542V5.54671H182.372V5.26523H182.09ZM182.665 4.98375H198.979V1.79367H186.125C184.302 1.79367 182.808 3.1981 182.665 4.98375Z" fill="#0D38C4" stroke="#0D38C4" stroke-width="0.6"/>
<path fill-rule="evenodd" clip-rule="evenodd" d="M193.913 14.9294L182.091 14.9294L182.091 10.6134L193.913 10.6134L193.913 14.9294ZM193.35 14.3665L193.35 11.1764L182.653 11.1764L182.653 14.3665L193.35 14.3665Z" fill="#0D38C4" stroke="#0D38C4" stroke-width="0.6"/>
<path fill-rule="evenodd" clip-rule="evenodd" d="M199.542 24.312L186.125 24.312C183.897 24.312 182.09 22.5057 182.09 20.2775L182.372 20.2775L182.372 19.996L199.542 19.996L199.542 24.312ZM182.665 20.559C182.808 22.3446 184.302 23.7491 186.125 23.7491L198.979 23.7491L198.979 20.559L182.665 20.559Z" fill="#0D38C4" stroke="#0D38C4" stroke-width="0.6"/>
<path fill-rule="evenodd" clip-rule="evenodd" d="M181.434 11.1763C179.724 11.1763 178.337 9.79003 178.337 8.08001C178.337 6.36999 179.724 4.98375 181.434 4.98375L182.653 4.98375L182.653 11.1763L181.434 11.1763ZM178.9 8.08001C178.9 9.47912 180.035 10.6133 181.434 10.6133L182.09 10.6133L182.09 5.54671L181.434 5.54671C180.035 5.54671 178.9 6.68091 178.9 8.08001Z" fill="#0D38C4" stroke="#0D38C4" stroke-width="0.6"/>
<path fill-rule="evenodd" clip-rule="evenodd" d="M181.434 20.5588C179.724 20.5588 178.337 19.1726 178.337 17.4626C178.337 15.7526 179.724 14.3663 181.434 14.3663L182.653 14.3663L182.653 20.5588L181.434 20.5588ZM178.9 17.4626C178.9 18.8617 180.035 19.9959 181.434 19.9959L182.09 19.9959L182.09 14.9293L181.434 14.9293C180.035 14.9293 178.9 16.0635 178.9 17.4626Z" fill="#0D38C4" stroke="#0D38C4" stroke-width="0.6"/>
<path fill-rule="evenodd" clip-rule="evenodd" d="M154.036 11.1763C152.326 11.1763 150.94 9.79003 150.94 8.08001C150.94 6.36999 152.326 4.98375 154.036 4.98375L155.256 4.98375L155.256 11.1763L154.036 11.1763ZM151.503 8.08001C151.503 9.47912 152.637 10.6133 154.036 10.6133L154.693 10.6133L154.693 5.54671L154.036 5.54671C152.637 5.54671 151.503 6.68091 151.503 8.08001Z" fill="#0D38C4" stroke="#0D38C4" stroke-width="0.6"/>
<path fill-rule="evenodd" clip-rule="evenodd" d="M172.802 14.3665C174.512 14.3665 175.898 15.7527 175.898 17.4627C175.898 19.1727 174.512 20.559 172.802 20.559L171.582 20.559L171.582 14.3665L172.802 14.3665ZM175.335 17.4627C175.335 16.0636 174.201 14.9294 172.802 14.9294L172.145 14.9294L172.145 19.996L172.802 19.996C174.201 19.996 175.335 18.8618 175.335 17.4627Z" fill="#0D38C4" stroke="#0D38C4" stroke-width="0.6"/>
<path fill-rule="evenodd" clip-rule="evenodd" d="M154.693 5.26523C154.693 3.03703 156.499 1.23071 158.727 1.23071L172.145 1.23072L172.145 5.54671L154.974 5.54671L154.974 5.26523L154.693 5.26523ZM155.267 4.98375L171.582 4.98375L171.582 1.79367L158.727 1.79367C156.905 1.79367 155.41 3.1981 155.267 4.98375Z" fill="#0D38C4" stroke="#0D38C4" stroke-width="0.6"/>
<path fill-rule="evenodd" clip-rule="evenodd" d="M172.145 20.2775C172.145 22.5057 170.338 24.312 168.11 24.312L154.693 24.312L154.693 19.996L171.863 19.996L171.863 20.2775L172.145 20.2775ZM171.57 20.559L155.256 20.559L155.256 23.7491L168.11 23.7491C169.933 23.7491 171.427 22.3446 171.57 20.559Z" fill="#0D38C4" stroke="#0D38C4" stroke-width="0.6"/>
<path fill-rule="evenodd" clip-rule="evenodd" d="M154.693 10.8949C154.693 13.1231 156.499 14.9294 158.727 14.9294L171.863 14.9294L171.863 14.648L172.145 14.648C172.145 12.4198 170.338 10.6134 168.11 10.6134L154.974 10.6134L154.974 10.8949L154.693 10.8949ZM155.267 11.1764L168.11 11.1764C169.933 11.1764 171.427 12.5808 171.57 14.3665L158.727 14.3665C156.905 14.3665 155.41 12.9621 155.267 11.1764Z" fill="#0D38C4" stroke="#0D38C4" stroke-width="0.6"/>
<path fill-rule="evenodd" clip-rule="evenodd" d="M144.56 20.2775C144.56 22.5057 142.754 24.312 140.526 24.312L134.896 24.312C132.668 24.312 130.861 22.5057 130.861 20.2775L131.143 20.2775L131.143 19.996L144.279 19.996L144.279 20.2775L144.56 20.2775ZM143.986 20.559L131.436 20.559C131.579 22.3446 133.073 23.7491 134.896 23.7491L140.526 23.7491C142.348 23.7491 143.843 22.3446 143.986 20.559Z" fill="#0D38C4" stroke="#0D38C4" stroke-width="0.6"/>
<path fill-rule="evenodd" clip-rule="evenodd" d="M131.143 20.5588C128.915 20.5588 127.108 18.7525 127.108 16.5243L127.108 1.23068L131.424 1.23068L131.424 20.2774L131.143 20.2774L131.143 20.5588ZM130.861 19.9846L130.861 1.79363L127.671 1.79363L127.671 16.5243C127.671 18.3468 129.076 19.8414 130.861 19.9846Z" fill="#0D38C4" stroke="#0D38C4" stroke-width="0.6"/>
<path fill-rule="evenodd" clip-rule="evenodd" d="M144.278 20.5588C146.507 20.5588 148.313 18.7525 148.313 16.5243L148.313 1.23068L143.997 1.23068L143.997 20.2774L144.278 20.2774L144.278 20.5588ZM144.56 19.9846L144.56 1.79363L147.75 1.79363L147.75 16.5243C147.75 18.3468 146.346 19.8414 144.56 19.9846Z" fill="#0D38C4" stroke="#0D38C4" stroke-width="0.6"/>
<path fill-rule="evenodd" clip-rule="evenodd" d="M82.0718 5.26523C82.0718 3.03703 83.8781 1.23071 86.1063 1.23071H99.5234V5.54671H82.3533V5.26523H82.0718ZM82.646 4.98375H98.9605V1.79367H86.1063C84.2838 1.79367 82.7893 3.1981 82.646 4.98375Z" fill="#0D38C4" stroke="#0D38C4" stroke-width="0.6"/>
<path fill-rule="evenodd" clip-rule="evenodd" d="M93.894 14.9294L82.072 14.9294L82.072 10.6134L93.894 10.6134L93.894 14.9294ZM93.3311 14.3665L93.3311 11.1764L82.6349 11.1764L82.6349 14.3665L93.3311 14.3665Z" fill="#0D38C4" stroke="#0D38C4" stroke-width="0.6"/>
<path fill-rule="evenodd" clip-rule="evenodd" d="M99.5234 24.312L86.1063 24.312C83.8781 24.312 82.0718 22.5057 82.0718 20.2775L82.3533 20.2775L82.3533 19.996L99.5234 19.996L99.5234 24.312ZM82.646 20.559C82.7893 22.3446 84.2838 23.7491 86.1063 23.7491L98.9605 23.7491L98.9605 20.559L82.646 20.559Z" fill="#0D38C4" stroke="#0D38C4" stroke-width="0.6"/>
<path fill-rule="evenodd" clip-rule="evenodd" d="M81.4151 11.1763C79.7051 11.1763 78.3188 9.79003 78.3188 8.08001C78.3188 6.36999 79.7051 4.98375 81.4151 4.98375L82.6348 4.98375L82.6348 11.1763L81.4151 11.1763ZM78.8818 8.08001C78.8818 9.47912 80.016 10.6133 81.4151 10.6133L82.0719 10.6133L82.0719 5.54671L81.4151 5.54671C80.016 5.54671 78.8818 6.68091 78.8818 8.08001Z" fill="#0D38C4" stroke="#0D38C4" stroke-width="0.6"/>
<path fill-rule="evenodd" clip-rule="evenodd" d="M81.4151 20.5588C79.7051 20.5588 78.3188 19.1726 78.3188 17.4626C78.3188 15.7526 79.7051 14.3663 81.4151 14.3663L82.6348 14.3663L82.6348 20.5588L81.4151 20.5588ZM78.8818 17.4626C78.8818 18.8617 80.016 19.9959 81.4151 19.9959L82.0719 19.9959L82.0719 14.9293L81.4151 14.9293C80.016 14.9293 78.8818 16.0635 78.8818 17.4626Z" fill="#0D38C4" stroke="#0D38C4" stroke-width="0.6"/>
<path fill-rule="evenodd" clip-rule="evenodd" d="M56.9263 1.23071H68.4669C70.6951 1.23071 72.5014 3.03703 72.5014 5.26523H72.2199V5.54671H56.9263V1.23071ZM71.9272 4.98375C71.7839 3.1981 70.2894 1.79367 68.4669 1.79367H57.4892V4.98375H71.9272Z" fill="#0D38C4" stroke="#0D38C4" stroke-width="0.6"/>
<path fill-rule="evenodd" clip-rule="evenodd" d="M72.5015 10.8949C72.5015 13.1231 70.6951 14.9294 68.4669 14.9294L56.9264 14.9294L56.9264 10.6134L72.22 10.6134L72.22 10.8949L72.5015 10.8949ZM71.9273 11.1764L57.4893 11.1764L57.4893 14.3665L68.4669 14.3665C70.2895 14.3665 71.784 12.9621 71.9273 11.1764Z" fill="#0D38C4" stroke="#0D38C4" stroke-width="0.6"/>
<path fill-rule="evenodd" clip-rule="evenodd" d="M56.2696 11.1763C54.5596 11.1763 53.1733 9.79003 53.1733 8.08001C53.1733 6.36999 54.5596 4.98375 56.2696 4.98375L57.4893 4.98375L57.4893 11.1763L56.2696 11.1763ZM53.7363 8.08001C53.7363 9.47912 54.8705 10.6133 56.2696 10.6133L56.9264 10.6133L56.9264 5.54671L56.2696 5.54671C54.8705 5.54671 53.7363 6.68091 53.7363 8.08001Z" fill="#0D38C4" stroke="#0D38C4" stroke-width="0.6"/>
<path fill-rule="evenodd" clip-rule="evenodd" d="M73.1581 4.98364C74.8682 4.98364 76.2544 6.36989 76.2544 8.0799C76.2544 9.78992 74.8682 11.1762 73.1581 11.1762L71.9384 11.1762L71.9384 4.98364L73.1581 4.98364ZM75.6914 8.0799C75.6914 6.6808 74.5572 5.5466 73.1581 5.5466L72.5014 5.5466L72.5014 10.6132L73.1581 10.6132C74.5572 10.6132 75.6914 9.47901 75.6914 8.0799Z" fill="#0D38C4" stroke="#0D38C4" stroke-width="0.6"/>
<path fill-rule="evenodd" clip-rule="evenodd" d="M53.1733 24.312L53.1733 18.401C53.1733 16.1728 54.9797 14.3665 57.2079 14.3665L57.2079 14.6479L57.4893 14.6479L57.4893 24.312L53.1733 24.312ZM56.9264 14.9407C55.1407 15.0839 53.7363 16.5784 53.7363 18.401L53.7363 23.7491L56.9264 23.7491L56.9264 14.9407Z" fill="#0D38C4" stroke="#0D38C4" stroke-width="0.6"/>
<path fill-rule="evenodd" clip-rule="evenodd" d="M46.2305 20.2775C46.2305 22.5057 44.4242 24.312 42.196 24.312L36.5664 24.312C34.3382 24.312 32.5319 22.5057 32.5319 20.2775L32.8133 20.2775L32.8133 19.996L45.949 19.996L45.949 20.2775L46.2305 20.2775ZM45.6563 20.559L33.1061 20.559C33.2493 22.3446 34.7439 23.7491 36.5664 23.7491L42.196 23.7491C44.0185 23.7491 45.513 22.3446 45.6563 20.559Z" fill="#0D38C4" stroke="#0D38C4" stroke-width="0.6"/>
<path fill-rule="evenodd" clip-rule="evenodd" d="M32.8133 20.5588C30.5851 20.5588 28.7788 18.7525 28.7788 16.5243L28.7788 1.23068L33.0948 1.23068L33.0948 20.2774L32.8133 20.2774L32.8133 20.5588ZM32.5318 19.9846L32.5318 1.79363L29.3418 1.79363L29.3418 16.5243C29.3418 18.3468 30.7462 19.8414 32.5318 19.9846Z" fill="#0D38C4" stroke="#0D38C4" stroke-width="0.6"/>
<path fill-rule="evenodd" clip-rule="evenodd" d="M45.9489 20.5588C48.1771 20.5588 49.9834 18.7525 49.9834 16.5243L49.9834 1.23068L45.6674 1.23068L45.6674 20.2774L45.9489 20.2774L45.9489 20.5588ZM46.2304 19.9846L46.2304 1.79363L49.4204 1.79363L49.4204 16.5243C49.4204 18.3468 48.016 19.8414 46.2304 19.9846Z" fill="#0D38C4" stroke="#0D38C4" stroke-width="0.6"/>
<path fill-rule="evenodd" clip-rule="evenodd" d="M4.29011 11.1763C2.58009 11.1763 1.19385 9.79003 1.19385 8.08001C1.19385 6.36999 2.58009 4.98375 4.29011 4.98375L5.50984 4.98375L5.50984 11.1763L4.29011 11.1763ZM1.7568 8.08001C1.7568 9.47912 2.891 10.6133 4.29011 10.6133L4.94689 10.6133L4.94689 5.54671L4.29011 5.54671C2.891 5.54671 1.7568 6.68091 1.7568 8.08001Z" fill="#0D38C4" stroke="#0D38C4" stroke-width="0.6"/>
<path fill-rule="evenodd" clip-rule="evenodd" d="M23.0551 14.3665C24.7651 14.3665 26.1514 15.7527 26.1514 17.4627C26.1514 19.1727 24.7651 20.559 23.0551 20.559L21.8354 20.559L21.8354 14.3665L23.0551 14.3665ZM25.5884 17.4627C25.5884 16.0636 24.4542 14.9294 23.0551 14.9294L22.3983 14.9294L22.3983 19.996L23.0551 19.996C24.4542 19.996 25.5884 18.8618 25.5884 17.4627Z" fill="#0D38C4" stroke="#0D38C4" stroke-width="0.6"/>
<path fill-rule="evenodd" clip-rule="evenodd" d="M4.94678 5.26523C4.94678 3.03703 6.75309 1.23071 8.9813 1.23071L22.3984 1.23072L22.3984 5.54671L5.22825 5.54671L5.22825 5.26523L4.94678 5.26523ZM5.52098 4.98375L21.8355 4.98375L21.8355 1.79367L8.9813 1.79367C7.15877 1.79367 5.66426 3.1981 5.52098 4.98375Z" fill="#0D38C4" stroke="#0D38C4" stroke-width="0.6"/>
<path fill-rule="evenodd" clip-rule="evenodd" d="M22.3984 20.2775C22.3984 22.5057 20.5921 24.312 18.3639 24.312L4.9468 24.312L4.9468 19.996L22.117 19.996L22.117 20.2775L22.3984 20.2775ZM21.8242 20.559L5.50975 20.559L5.50975 23.7491L18.3639 23.7491C20.1864 23.7491 21.681 22.3446 21.8242 20.559Z" fill="#0D38C4" stroke="#0D38C4" stroke-width="0.6"/>
<path fill-rule="evenodd" clip-rule="evenodd" d="M4.94678 10.8949C4.94678 13.1231 6.75309 14.9294 8.9813 14.9294L22.1169 14.9294L22.1169 14.648L22.3984 14.648C22.3984 12.4198 20.5921 10.6134 18.3639 10.6134L5.22826 10.6134L5.22826 10.8949L4.94678 10.8949ZM5.52098 11.1764L18.3639 11.1764C20.1864 11.1764 21.6809 12.5808 21.8242 14.3665L8.9813 14.3665C7.15877 14.3665 5.66426 12.9621 5.52098 11.1764Z" fill="#0D38C4" stroke="#0D38C4" stroke-width="0.6"/>
</svg>
